<svg id="helmet" version="1.1" viewBox="0 0 128 128" xml:space="preserve" xmlns="http://www.w3.org/2000/svg"><style>.st1{fill:#eaeaea}.st2{fill:#d4d6d6}.st3{fill:#233e49}.st7,.st8{fill:#fff}.st8{opacity:.5}</style><circle cx="64" cy="64" r="64" fill="#28a5c6"/><path class="st1" d="M104 61.8c0 21.8-17.6 39.6-39.4 39.6-21.9 0-39.6-17.8-39.6-39.6 0-21.9 17.7-39.6 39.6-39.6 21.8 0 39.4 17.7 39.4 39.6z"/><path class="st2" d="M68.6 90C46.7 90 29 72.3 29 50.5c0-2.5.2-5 .7-7.4-3 5.6-4.7 11.9-4.7 18.7 0 21.8 17.7 39.6 39.6 39.6 19.3 0 35.4-13.9 38.9-32.2C96.8 81.6 83.7 90 68.6 90z"/><path class="st3" d="M64.6 102.4C42.2 102.4 24 84.2 24 61.8 24 39.3 42.6 21 65 21c22.3 0 40 18.3 40 40.8 0 22.4-18.1 40.6-40.4 40.6zM65 23c-21.3 0-39 17.4-39 38.8 0 21.3 17.3 38.6 38.6 38.6 21.2 0 38.4-17.3 38.4-38.6C103 40.4 86.2 23 65 23z"/><path class="st1" d="M93.8 99c0 3.7-3.6 6.7-8 6.7H43.7c-4.4 0-8-3-8-6.7s3.6-6.7 8-6.7h42.1c4.4.1 8 3.1 8 6.7z"/><path d="M89.5 31.1L52.1 63v7.4c0 3.7.5 8.4 7.4 8.4h40.8c2.5-5.1 3.7-10.9 3.7-17 0-12.4-5.6-23.4-14.5-30.7z" fill="#3ad0f9"/><path d="M64.7 52.3L52.1 63v7.4c0 3.7.5 8.4 7.4 8.4h29.7c-11.4-5.2-20.3-14.7-24.5-26.5z" fill="#00b3f9"/><circle cx="42.5" cy="69.5" r="4.5" fill="#ff4848"/><path class="st7" d="M68 63.4c-.3 0-.5-.1-.7-.3-.4-.4-.4-1 0-1.4l14.4-14.4c.4-.4 1-.4 1.4 0 .4.4.4 1 0 1.4L68.7 63.1c-.2.2-.5.3-.7.3zM71.2 72.1c-.3 0-.5-.1-.7-.3-.4-.4-.4-1 0-1.4L85 55.9c.4-.4 1-.4 1.4 0 .4.4.4 1 0 1.4L71.9 71.8c-.2.2-.4.3-.7.3zM81.8 73.2c-.3 0-.5-.1-.7-.3-.4-.4-.4-1 0-1.4l9.3-9.3c.4-.4 1-.4 1.4 0 .4.4.4 1 0 1.4l-9.3 9.3c-.2.2-.4.3-.7.3z"/><path class="st3" d="M101.3 107H27.5c-.6 0-1-.4-1-1s.4-1 1-1h73.8c.6 0 1 .4 1 1s-.4 1-1 1z"/><path class="st2" d="M85.8 101H43.7c-3.3 0-6.2-1.7-7.4-4.2-.4.8-.6 1.6-.6 2.5 0 3.7 3.6 6.7 8 6.7h42.1c4.4 0 8-3 8-6.7 0-.9-.2-1.7-.6-2.5-1.2 2.5-4 4.2-7.4 4.2z"/><path class="st3" d="M86 107H44c-5 0-9.1-3.6-9.1-8 0-2 .7-3.8 2.2-5.3 1.7-1.7 4.1-2.7 6.7-2.7H86c5 0 9 3.6 9 8s-4 8-9 8zM43.7 93c-2 0-3.9.8-5.3 2.1-1.1 1.1-1.6 2.5-1.6 3.9.1 3.3 3.3 6 7.1 6h42c3.9 0 7-2.7 7-6s-3.1-6-7-6H43.7zM42.6 75c-3 0-5.5-2.4-5.6-5.4 0-3 2.4-5.5 5.4-5.6 3 0 5.5 2.4 5.6 5.4 0 3.1-2.4 5.6-5.4 5.6zm-.1-9c-1.9 0-3.5 1.6-3.5 3.5s1.6 3.5 3.5 3.5 3.5-1.6 3.5-3.5-1.6-3.5-3.5-3.5zM100.3 80H59.5c-8.4 0-8.5-7.4-8.5-10v-7c0-.3.3-.6.5-.7l37.4-31.9c.4-.3.9-.3 1.3 0C99.7 38.1 105 49.7 105 62c0 6.2-1.2 12-3.8 17.4-.2.4-.5.6-.9.6zM53 64v7c0 4.6 1.2 7 6.5 7h40.2c2.3-5 3.3-10.4 3.3-16 0-11.4-4.8-22.2-13.5-29.6L53 64z"/><path class="st7" d="M99.3 66.5c-.6 0-1-.5-1-1.1.3-5.4-.5-10.7-2.5-15.9-.2-.5.1-1.1.6-1.3.5-.2 1.1.1 1.3.6 2.1 5.4 3 11 2.6 16.7 0 .6-.4 1-1 1zM94.5 45.3c-.4 0-.7-.2-.9-.5-2.3-4.2-4.5-6.5-4.5-6.5-.4-.4-.4-1 0-1.4.4-.4 1-.4 1.4 0 .1.1 2.4 2.6 4.8 7 .3.5.1 1.1-.4 1.4-.1-.1-.2 0-.4 0zM34.2 48c-.1 0-.2 0-.4-.1-.5-.2-.8-.8-.6-1.3.2-.6 5.4-13.8 21.7-18.5.5-.2 1.1.2 1.2.7.2.5-.2 1.1-.7 1.2-15.3 4.4-20.3 17.2-20.3 17.3-.1.5-.4.7-.9.7zM83.8 97h-6.5c-.6 0-1-.4-1-1s.4-1 1-1h6.5c.6 0 1 .4 1 1s-.5 1-1 1zM68.8 97h-22c-.6 0-1-.4-1-1s.4-1 1-1h22c.6 0 1 .4 1 1s-.5 1-1 1z"/><path class="st8" d="M44 70.6c-.6 0-1-.4-1-1 0-.3-.3-.6-.6-.6s-.6.3-.6.6c0 .6-.4 1-1 1s-1-.4-1-1c0-1.4 1.2-2.6 2.6-2.6s2.6 1.2 2.6 2.6c0 .5-.4 1-1 1zM40 21c-2.2 0-4-1.8-4-4s1.8-4 4-4 4 1.8 4 4-1.8 4-4 4zm0-6.1c-1.2 0-2.1 1-2.1 2.1 0 1.2 1 2.1 2.1 2.1 1.2 0 2.1-1 2.1-2.1 0-1.2-.9-2.1-2.1-2.1zM113 86c-2.2 0-4-1.8-4-4s1.8-4 4-4 4 1.8 4 4-1.8 4-4 4zm0-6.1c-1.2 0-2.1 1-2.1 2.1 0 1.2 1 2.1 2.1 2.1 1.2 0 2.1-1 2.1-2.1 0-1.2-.9-2.1-2.1-2.1zM20.1 72.6c0-.4-.4-.8-1-.9l-1.9-.3c-.5-.1-1.1-.6-1.1-1.1l-.3-1.9c-.1-.5-.5-1-.9-1s-.8.4-.9 1l-.3 1.9c-.1.5-.6 1.1-1.1 1.1l-1.9.3c-.5.1-1 .5-1 .9s.4.8 1 .9l1.9.3c.5.1 1.1.6 1.1 1.1l.3 1.9c.1.5.5 1 .9 1s.8-.4.8-1l.3-2.1c.1-.5.6-1 1.1-1.1l1.8-.1c.7-.2 1.2-.5 1.2-.9zM93.4 17.2c0-.4-.4-.8-1-.9l-1.9-.3c-.5 0-1-.5-1.1-1l-.3-1.9c-.1-.5-.5-1-.9-1s-.8.4-.9 1l-.2 1.9c-.1.5-.6 1.1-1.1 1.1l-1.9.3c-.5.1-1 .5-1 .9s.4.8 1 .9l1.9.3c.5.1 1.1.6 1.1 1.1l.3 1.9c.1.5.5 1 .9 1s.8-.4.8-1l.3-2.1c.1-.5.6-1 1.1-1.1l1.8-.1c.7-.2 1.1-.6 1.1-1z"/></svg>
