<svg xmlns="http://www.w3.org/2000/svg" viewBox="0 0 128 128"><path d="M127.9 64.1c0 35.3-28.6 63.9-63.9 63.9S.1 99.4.1 64.1C.1 28.9 28.7.3 64 .3s63.9 28.6 63.9 63.8z" fill-rule="evenodd" clip-rule="evenodd" fill="#ffd05b"/><path d="M95.8 59.4l.8 18c-17 17.4-47.6 15.5-61.8.6l-.1-17.6L64 72.6l31.8-13.2z" fill-rule="evenodd" clip-rule="evenodd" fill="#2b3b4e"/><path fill-rule="evenodd" clip-rule="evenodd" fill="#324a5e" d="M13.2 56.2L64 38.4l50.9 17.8L64 73.9z"/><path d="M64.7 51.3l-34.2 9.3c-.3.1-.5.2-.5.6l-.2 15.2c1.1.4 1.9 1.6 1.9 2.9 0 1.7-1.2 3-2.9 3-1.6 0-2.9-1.3-2.9-3 0-1.2.7-2.3 1.7-2.8l.2-16.6c-.1-.5.2-.9.8-1.2l34.7-9.3c1.3-.3 2.5 1.1 1.4 1.9z" fill-rule="evenodd" clip-rule="evenodd" fill="#ff7058"/></svg>