<svg version="1.1" id="Layer_1" xmlns="http://www.w3.org/2000/svg" x="0" y="0" viewBox="0 0 64 64" xml:space="preserve"><style>.st4{opacity:.2}.st5{fill:#231f20}.st7{fill:#e0995e}</style><circle cx="31.9" cy="31.9" r="31.9" fill="#4cdbc4" id="Layer_1_1_"/><path d="M35.7 16.9H19.1c-1.3 0-2.3 1-2.3 2.3v25.6c0 1.3 1 2.3 2.3 2.3h16.6c1.3 0 2.3-1 2.3-2.3V19.2c0-1.3-1-2.3-2.3-2.3z" fill="#e0e0d1"/><g class="st4"><path class="st5" d="M19.9 22.2h7.6v1.5h-7.6z"/></g><g class="st4"><path class="st5" d="M19.9 34.3H35v1.5H19.9z"/></g><g class="st4"><path class="st5" d="M19.9 30.5H35V32H19.9z"/></g><g class="st4"><path class="st5" d="M19.9 26.7H35v1.5H19.9z"/></g><g class="st4"><path class="st5" d="M19.9 38H35v1.5H19.9z"/></g><g class="st4"><path class="st5" d="M19.9 41.8H35v1.5H19.9z"/></g><g><path d="M46.2 29.3c-.9.9-2.3.9-3.2 0L37.7 24c-.9-.9-.9-2.3 0-3.2l3.2-3.2c.9-.9 2.3-.9 3.2 0l5.3 5.3c.9.9.9 2.3 0 3.2l-3.2 3.2z" fill="#c75c5c"/></g><g><path transform="rotate(-45.001 32.866 27.706)" class="st7" d="M23.8 26.2h18.1v3H23.8z"/></g><g><path transform="rotate(-45.001 35.536 31.444)" fill="#f5cf87" d="M25.7 28.4h19.6v6H25.7z"/></g><g><path transform="rotate(-45.001 39.274 34.115)" class="st7" d="M30.2 32.6h18.1v3H30.2z"/></g><g><path fill="#4f5d73" d="M23.3 43.7l3.5-.7-2.8-2.8z"/><path fill="#fff" d="M25.4 33L24 40.2l2.8 2.8 7.1-1.4-1-1.1v-2.1h-4.3v-4.3h-2.1z"/></g></svg>
